<svg width="236" height="256" viewBox="0 0 236 256" fill="none" xmlns="http://www.w3.org/2000/svg">
<path d="M104.11 132.062C107.921 135.938 112.96 137.846 118 137.846C123.04 137.846 128.067 135.923 131.902 132.077L230.238 33.6154C237.921 25.9231 237.921 13.4615 230.238 5.76923C222.556 -1.92308 210.11 -1.92308 202.428 5.76923L118 90.3385L33.5725 5.77231C25.89 -1.92 13.4444 -1.92 5.76187 5.77231C-1.92062 13.4646 -1.92062 25.9262 5.76187 33.6185L104.11 132.062ZM202.446 123.938L118 208.492L33.5725 123.938C25.89 116.246 13.4444 116.246 5.76187 123.938C-1.92062 131.631 -1.92062 144.092 5.76187 151.785L104.098 250.246C107.921 254.092 112.96 256 118 256C123.04 256 128.067 254.077 131.902 250.231L230.238 151.769C237.921 144.077 237.921 131.615 230.238 123.923C222.556 116.231 210.128 116.246 202.446 123.938Z" fill="#778DA9"/>
</svg>
