<svg width="64" height="51" viewBox="0 0 64 51" fill="none" xmlns="http://www.w3.org/2000/svg">
<path fill-rule="evenodd" clip-rule="evenodd" d="M20.2028 19.8654L30.9819 15.6067V7.59998C29.7294 7.44241 28.5952 6.97808 27.7781 6.28835L10.5092 13.357C10.7146 13.7638 10.8261 14.1996 10.8261 14.6562C10.8261 15.0381 10.7498 15.4034 10.6031 15.752L20.2028 19.8654ZM26.8628 5.18011C26.6336 4.74883 26.5164 4.29185 26.5166 3.83112C26.5166 2.77269 27.1209 1.81387 28.1009 1.1207C29.0808 0.427525 30.4362 0 31.9325 0C33.4288 0 34.7843 0.427525 35.7642 1.1207C36.2676 1.47639 36.6668 1.89895 36.9387 2.36409C37.2105 2.82923 37.3498 3.32779 37.3485 3.83112C37.3485 4.296 37.2311 4.74013 37.0199 5.15105L54.371 12.2488C54.4942 12.145 54.6174 12.0413 54.7524 11.9458C55.2552 11.5897 55.8526 11.3073 56.5101 11.115C57.1677 10.9227 57.8725 10.8242 58.584 10.8251C60.0803 10.8251 61.4358 11.2526 62.4157 11.9458C62.9191 12.3015 63.3183 12.724 63.5902 13.1892C63.862 13.6543 64.0013 14.1529 64 14.6562C64 15.7147 63.3956 16.6693 62.4157 17.3625C61.5735 17.9589 60.4758 18.3413 59.294 18.45V32.5251C60.5087 32.6372 61.5942 33.0315 62.4157 33.6126C63.3956 34.3058 64 35.2646 64 36.3189C64.0006 36.8221 63.8609 37.3205 63.589 37.7855C63.317 38.2505 62.9181 38.673 62.4151 39.0289C61.912 39.3847 61.3147 39.6669 60.6574 39.8593C60 40.0516 59.2954 40.1504 58.584 40.15C57.7808 40.1509 56.9874 40.025 56.2616 39.7816C55.5359 39.5382 54.896 39.1833 54.3886 38.7429L37.014 45.8489C37.2253 46.2599 37.3426 46.704 37.3426 47.1689C37.3426 48.2273 36.7382 49.1861 35.7583 49.8793C35.2555 50.2354 34.6581 50.5178 34.0006 50.7101C33.343 50.9024 32.6382 51.0009 31.9267 51C30.4304 51 29.0749 50.5725 28.095 49.8793C27.1151 49.1861 26.5107 48.2273 26.5107 47.1689C26.5107 46.6957 26.6339 46.2391 26.8569 45.8199L9.59385 38.7595C9.08598 39.1966 8.44721 39.5484 7.72369 39.7896C7.00017 40.0308 6.20995 40.1553 5.41012 40.1541C3.91383 40.1541 2.55837 39.7266 1.57845 39.0334C0.604401 38.3403 1.86805e-05 37.3815 1.86805e-05 36.323C1.86805e-05 35.2646 0.604401 34.3099 1.58432 33.6167C2.41694 33.0272 3.49832 32.6454 4.66491 32.5293V18.4458C3.49752 18.3315 2.41536 17.9495 1.58432 17.3583C1.0805 17.0037 0.681076 16.5819 0.409137 16.1174C0.137198 15.6529 -0.00185473 15.1548 1.86805e-05 14.6521C1.86805e-05 13.5936 0.604401 12.6348 1.58432 11.9416C2.08716 11.5855 2.68452 11.3032 3.34208 11.1109C3.99964 10.9185 4.70444 10.82 5.41599 10.8209C6.22067 10.8199 7.0155 10.9461 7.74239 11.1903C8.46928 11.4345 9.10986 11.7904 9.61732 12.2322L26.8628 5.18011ZM36.1104 6.26345C35.288 6.97275 34.1319 7.44871 32.8538 7.60413V15.6067L43.6094 20.0148L53.4966 15.972C53.2795 15.5611 53.1681 15.1128 53.1681 14.6521C53.1681 14.2038 53.2795 13.768 53.479 13.3695L36.1104 6.26345V6.26345ZM57.6393 18.4251C56.5449 18.2905 55.5363 17.9192 54.7524 17.3625C54.6409 17.2836 54.5352 17.2048 54.4355 17.1176L44.5659 21.1521V29.7773L54.4766 33.8243C54.5646 33.7537 54.6526 33.6832 54.7465 33.6167C55.5312 33.0608 56.5394 32.6897 57.6334 32.5542V18.4251H57.6393ZM53.4908 37.6305C53.2795 37.2237 53.1681 36.7837 53.1681 36.3272C53.1681 35.8457 53.2913 35.385 53.526 34.9574L43.938 31.0433L32.8538 35.6008V43.4C34.1319 43.5554 35.288 44.0314 36.1104 44.7407L53.4908 37.6305V37.6305ZM27.7781 44.7116C28.5952 44.0219 29.7294 43.5576 30.9819 43.4V35.5634L19.8566 30.9976L10.4153 34.8537C10.6794 35.3061 10.832 35.8042 10.832 36.3272C10.832 36.792 10.7146 37.2362 10.5034 37.6471L27.7781 44.7116V44.7116ZM6.31376 32.5459C7.44624 32.6787 8.46137 33.0647 9.24179 33.6167C9.30046 33.6582 9.35327 33.6998 9.40608 33.7413L19.0234 29.8147V20.9031L9.76402 16.935C9.60559 17.0885 9.42956 17.2297 9.24179 17.3625C8.4462 17.9254 7.42304 18.2996 6.31376 18.4334V32.5459ZM5.42186 17.1591C5.44533 17.1591 5.4688 17.155 5.49227 17.155H5.53921C6.43589 17.1351 7.28801 16.8738 7.92153 16.4244C8.25111 16.1919 8.51252 15.9157 8.69076 15.6115C8.86899 15.3074 8.96053 14.9813 8.96013 14.6521C8.96013 13.9589 8.56112 13.3321 7.92153 12.8797C7.28194 12.4273 6.39591 12.145 5.41599 12.145C4.43607 12.145 3.55003 12.4273 2.91044 12.8797C2.58086 13.1122 2.31945 13.3885 2.14122 13.6926C1.96299 13.9968 1.87144 14.3228 1.87184 14.6521C1.87184 15.3452 2.27085 15.972 2.91044 16.4244C3.23994 16.6579 3.63145 16.843 4.06246 16.9691C4.49346 17.0952 4.95545 17.1598 5.42186 17.1591V17.1591ZM34.4322 45.4048C34.1035 45.1717 33.713 44.9868 33.283 44.8607C32.8531 44.7346 32.3921 44.6698 31.9267 44.6701C30.9467 44.6701 30.0607 44.9524 29.4211 45.4048C28.7815 45.8572 28.3825 46.484 28.3825 47.1772C28.3825 47.8703 28.7815 48.4971 29.4211 48.9495C30.0607 49.402 30.9467 49.6842 31.9267 49.6842C32.9066 49.6842 33.7926 49.402 34.4322 48.9495C35.0718 48.4971 35.4708 47.8703 35.4708 47.1772C35.4708 46.484 35.0777 45.8572 34.4322 45.4048V45.4048ZM34.4322 2.05876C34.1035 1.82562 33.713 1.64071 33.283 1.51463C32.8531 1.38855 32.3921 1.3238 31.9267 1.32408C30.9467 1.32408 30.0607 1.60633 29.4211 2.05876C28.7815 2.51119 28.3825 3.13795 28.3825 3.83112C28.3825 4.52429 28.7815 5.15105 29.4211 5.60348C29.7498 5.83662 30.1403 6.02153 30.5703 6.14761C31.0003 6.27369 31.4612 6.33845 31.9267 6.33816C32.9066 6.33816 33.7926 6.05591 34.4322 5.60348C34.7618 5.37099 35.0232 5.09474 35.2014 4.79058C35.3797 4.48643 35.4712 4.16037 35.4708 3.83112C35.4708 3.13795 35.0777 2.51119 34.4322 2.05876V2.05876ZM61.0837 34.5548C60.755 34.3217 60.3645 34.1368 59.9345 34.0107C59.5046 33.8846 59.0436 33.8198 58.5782 33.8201C57.5982 33.8201 56.7122 34.1024 56.0726 34.5548C55.743 34.7873 55.4816 35.0636 55.3034 35.3677C55.1252 35.6719 55.0336 35.9979 55.034 36.3272C55.034 37.0203 55.433 37.6471 56.0726 38.0995C56.4013 38.3327 56.7918 38.5176 57.2218 38.6437C57.6518 38.7697 58.1127 38.8345 58.5782 38.8342C59.5581 38.8342 60.4441 38.552 61.0837 38.0995C61.4133 37.867 61.6747 37.5908 61.8529 37.2866C62.0312 36.9825 62.1227 36.6564 62.1223 36.3272C62.1223 35.634 61.7292 35.0072 61.0837 34.5548ZM7.92153 34.5548C7.28194 34.1024 6.39591 33.8201 5.41599 33.8201C4.43607 33.8201 3.55003 34.1024 2.91044 34.5548C2.58086 34.7873 2.31945 35.0636 2.14122 35.3677C1.96299 35.6719 1.87144 35.9979 1.87184 36.3272C1.87184 37.0203 2.27085 37.6471 2.91044 38.0995C3.55003 38.552 4.43607 38.8342 5.41599 38.8342C6.39591 38.8342 7.28194 38.552 7.92153 38.0995C8.25111 37.867 8.51252 37.5908 8.69076 37.2866C8.86899 36.9825 8.96053 36.6564 8.96013 36.3272C8.95824 35.6626 8.5849 35.0255 7.92153 34.5548V34.5548ZM55.4213 15.7852C55.4682 15.8184 55.5034 15.8599 55.5386 15.9014C55.5738 15.9429 55.5973 15.9845 55.6208 16.0301C55.7557 16.1712 55.9083 16.3041 56.0726 16.4244C56.4013 16.6576 56.7918 16.8425 57.2218 16.9686C57.6518 17.0946 58.1127 17.1594 58.5782 17.1591C59.5581 17.1591 60.4441 16.8769 61.0837 16.4244C61.4133 16.1919 61.6747 15.9157 61.8529 15.6115C62.0312 15.3074 62.1227 14.9813 62.1223 14.6521C62.1223 13.9589 61.7233 13.3321 61.0837 12.8797C60.755 12.6466 60.3645 12.4617 59.9345 12.3356C59.5046 12.2095 59.0436 12.1447 58.5782 12.145C57.5982 12.145 56.7122 12.4273 56.0726 12.8797C55.743 13.1122 55.4816 13.3885 55.3034 13.6926C55.1252 13.9968 55.0336 14.3228 55.034 14.6521C55.0399 15.063 55.1807 15.4449 55.4213 15.7852V15.7852ZM20.7779 29.6736C20.9112 29.775 20.999 29.9021 21.0302 30.0388L31.0817 34.2186V25.967L20.7779 21.6294V29.6736ZM42.8173 21.7415L32.8362 25.9711V34.2269L42.8173 30.0554V21.7415V21.7415ZM31.9149 16.5988L22.1744 20.7204L31.9677 24.8919L41.4794 20.8076L31.9149 16.5988V16.5988Z" fill="#F4F2FF"/>
</svg>
