<svg width="64" height="51" viewBox="0 0 64 51" fill="none" xmlns="http://www.w3.org/2000/svg">
<g clip-path="url(#clip0_322_5)">
<path d="M41.48 4.06299L28.68 48.689C28.19 50.3823 26.42 51.3585 24.72 50.8804C23.02 50.3923 22.04 48.6292 22.52 46.9359L35.32 2.31186C35.81 0.619095 37.58 -0.361061 39.28 0.122642C40.98 0.606245 41.96 2.37063 41.48 4.06299ZM51.86 12.0925L63.06 23.2487C64.31 24.4939 64.31 26.506 63.06 27.7511L51.86 38.9073C50.61 40.1525 48.59 40.1525 47.34 38.9073C46.09 37.6622 46.09 35.6501 47.34 34.405L56.27 25.4999L47.34 16.5948C46.09 15.3497 46.09 13.3376 47.34 12.0925C48.59 10.8474 50.61 10.8474 51.86 12.0925ZM16.66 16.5948L7.725 25.4999L16.66 34.405C17.91 35.6501 17.91 37.6622 16.66 38.9073C15.41 40.1525 13.39 40.1525 12.14 38.9073L0.9372 27.7511C-0.3124 26.506 -0.3124 24.4939 0.9372 23.2487L12.14 12.0925C13.39 10.8474 15.41 10.8474 16.66 12.0925C17.91 13.3376 17.91 15.3497 16.66 16.5948Z" fill="#8D78FF"/>
</g>
<defs>
<clipPath id="clip0_322_5">
<rect width="64" height="51" fill="white"/>
</clipPath>
</defs>
</svg>
