<svg width="708" height="585" viewBox="0 0 708 585" fill="none" xmlns="http://www.w3.org/2000/svg">
<rect width="708" height="585" rx="22" fill="black"/>
<path d="M400.074 280.375C400.074 275.812 398.341 271.246 394.872 267.747L331.471 204.209C328.299 200.739 323.732 199 318.874 199C314.633 199 310.102 200.739 306.585 204.213L243.202 267.733C239.734 271.257 238 275.798 238 280.048C238 284.611 239.735 289.192 243.202 292.69L306.603 356.228C310.092 359.702 314.647 361.441 319.2 361.441C323.753 361.441 328.31 359.704 331.797 356.228L395.198 292.69C398.66 289.493 400.074 284.952 400.074 280.375ZM272.8 289.094C267.997 289.094 264.427 285.188 264.427 280.702C264.427 276.215 268.324 272.31 272.8 272.31C277.277 272.31 281.5 275.58 281.5 280.375C281.5 285.17 277.622 289.094 272.8 289.094ZM319.2 335.594C314.397 335.594 310.827 331.688 310.827 327.202C310.827 322.715 314.724 318.81 319.2 318.81C323.677 318.81 327.574 322.715 327.574 327.202C327.574 331.688 324.022 335.594 319.2 335.594ZM319.2 289.094C314.397 289.094 310.827 285.188 310.827 280.702C310.827 276.215 314.724 272.31 319.2 272.31C323.677 272.31 327.9 275.58 327.9 280.375C327.9 285.17 324.022 289.094 319.2 289.094ZM319.2 242.594C314.397 242.594 310.827 238.688 310.827 234.202C310.827 229.715 314.724 225.81 319.2 225.81C323.677 225.81 327.574 229.715 327.574 234.202C327.574 238.688 324.022 242.594 319.2 242.594ZM365.6 289.094C360.797 289.094 357.227 285.188 357.227 280.702C357.227 276.215 361.124 272.31 365.6 272.31C370.077 272.31 373.974 276.215 373.974 280.702C373.974 285.188 370.422 289.094 365.6 289.094ZM452.274 268.75H409.245C410.847 272.481 411.639 276.47 411.639 280.459C411.639 287.978 408.788 295.491 403.073 301.216L353.701 350.695V367.541C354 377.189 361.794 385 371.4 385H452.274C461.88 385 469.348 377.189 469.348 367.889V286.188C469.674 276.561 462.207 268.75 452.274 268.75ZM411.674 335.594C406.871 335.594 403.3 331.688 403.3 327.202C403.3 322.715 407.197 318.81 411.674 318.81C416.151 318.81 420.048 322.715 420.048 327.202C420.048 331.688 416.785 335.594 411.674 335.594Z" fill="#81FBA3"/>
</svg>
