<svg width="65" height="51" viewBox="0 0 65 51" fill="none" xmlns="http://www.w3.org/2000/svg">
<path d="M29.4809 14.9947C29.593 15.6879 29.6541 16.4014 29.6541 17.0334C29.6541 17.8489 29.593 18.5625 29.4809 19.2556L31.7422 21.274C32.4553 21.9162 32.7507 22.8438 32.3738 23.8224C32.1395 24.2709 31.8848 24.8927 31.5996 25.4024L31.2839 25.9528C30.8866 26.4625 30.6421 26.9518 30.2856 27.4309C29.705 28.2056 28.6864 28.4604 27.7696 28.1546L24.887 27.2066C23.7971 28.1138 22.5544 28.8376 21.1996 29.3473L20.4968 32.3034C20.3847 33.2514 19.6513 34.0057 18.6938 34.1281C18.0113 34.2096 17.3187 34.2504 16.6158 34.2504C15.913 34.2504 15.2203 34.2096 14.5379 34.1281C13.5804 34.0057 12.7553 33.2514 12.6433 32.3034L11.9404 29.3473C10.6773 28.8376 9.43463 28.1138 8.33962 27.2066L5.46509 28.1546C4.54936 28.4604 3.52871 28.2056 2.9481 27.4309C2.58751 26.9518 2.25137 26.4523 1.94171 25.9426L1.63409 25.4024C1.3499 24.8927 1.09138 24.3626 0.860356 23.8224C0.483062 22.8438 0.772144 21.9162 1.49149 21.274L3.75077 19.2556C3.63669 18.5625 3.48593 17.8489 3.48593 17.0334C3.48593 16.4014 3.63669 15.6879 3.75077 14.9947L1.49149 12.9764C0.772144 12.2425 0.483062 11.3149 0.860356 10.428C1.09138 9.79602 1.3499 9.35667 1.63308 8.84394L1.94273 8.30877C2.25137 7.794 2.58751 7.29655 2.9481 6.81847C3.52871 6.04886 4.54936 5.793 5.46509 6.09473L8.33962 7.04273C9.43463 6.14162 10.6773 5.41584 11.9404 4.9082L12.6433 1.94493C12.7553 0.998969 13.5804 0.241587 14.5379 0.125483C15.2203 0.0426091 15.913 0 16.6158 0C17.3187 0 18.0113 0.0426091 18.6938 0.125381C19.6513 0.241587 20.3847 0.998969 20.4968 1.94493L21.1996 4.9082C22.5544 5.41584 23.7971 6.14162 24.887 7.04273L27.7696 6.09473C28.6864 5.793 29.705 6.04886 30.2856 6.81847C30.6421 7.29451 30.8866 7.78992 31.2839 8.30164L31.5996 8.85107C31.8848 9.36177 32.1395 9.88776 32.3738 10.428C32.7507 11.3149 32.4553 12.2425 31.7422 12.9764L29.4809 14.9947ZM16.6158 12.1405C13.9165 12.1405 11.7265 14.4239 11.7265 17.0334C11.7265 19.8265 13.9165 21.9264 16.6158 21.9264C19.3152 21.9264 21.5052 19.8265 21.5052 17.0334C21.5052 14.4239 19.3152 12.1405 16.6158 12.1405ZM49.7106 47.9403C49.0179 48.0525 48.3049 48.1136 47.5817 48.1136C46.8584 48.1136 46.1454 48.0525 45.4528 47.9403L43.4359 50.2033C42.7025 50.9169 41.7756 51.2125 40.8894 50.8353C40.3495 50.6009 39.8198 50.346 39.3105 50.0606L38.7605 49.7446C38.2512 49.347 37.7622 49.1024 37.2835 48.7456C36.5093 48.1646 36.2547 47.1452 36.5603 46.2278L37.5076 43.343C36.601 42.2523 35.8778 41.0087 35.3685 39.653L32.4145 38.9496C31.4672 38.8375 30.7134 38.1035 30.5912 37.1453C30.5097 36.4624 30.469 35.7692 30.469 35.0659C30.469 34.3625 30.5097 33.6693 30.5912 32.9864C30.7134 32.0282 31.4672 31.2025 32.4145 31.0904L35.3685 30.387C35.8778 29.123 36.601 27.8794 37.5076 26.7887L36.5603 23.9039C36.2547 22.9865 36.5093 21.9671 37.2835 21.3861C37.7622 21.0293 38.2614 20.6012 38.7707 20.3769L39.3105 20.0711C39.8198 19.7857 40.2578 19.5309 40.8894 19.2964C41.7756 18.9193 42.7025 19.2149 43.4359 19.9284L45.4528 22.1914C46.1454 22.0793 46.8584 22.0181 47.5817 22.0181C48.3049 22.0181 49.0179 22.0793 49.7106 22.1914L51.7274 19.9284C52.3691 19.2149 53.2961 18.9193 54.2739 19.2964C54.8138 19.5309 55.3435 19.7857 55.8528 20.0711L56.3926 20.3769C56.902 20.6012 57.4011 21.0293 57.8798 21.3861C58.654 21.9671 58.9086 22.9865 58.603 23.9039L57.6557 26.7887C58.5623 27.8794 59.2855 29.123 59.7948 30.387L62.7488 31.0904C63.6961 31.2025 64.4499 32.0282 64.5721 32.9864C64.6536 33.6693 64.6943 34.3625 64.6943 35.0659C64.6943 35.7692 64.6536 36.4624 64.5721 37.1453C64.4499 38.1035 63.6961 38.8375 62.7488 38.9496L59.7948 39.653C59.2855 41.0087 58.5623 42.2523 57.6557 43.343L58.603 46.2278C58.9086 47.1452 58.654 48.1646 57.8798 48.7456C57.4011 49.1024 56.9121 49.347 56.4028 49.7446L55.8528 50.0606C55.3435 50.346 54.7221 50.6009 54.2739 50.8353C53.2961 51.2125 52.3691 50.9169 51.7274 50.2033L49.7106 47.9403ZM52.471 35.0659C52.471 32.3646 50.281 30.1729 47.5817 30.1729C44.8823 30.1729 42.6923 32.3646 42.6923 35.0659C42.6923 37.7672 44.8823 39.9588 47.5817 39.9588C50.281 39.9588 52.471 37.7672 52.471 35.0659Z" fill="#81FBA3"/>
</svg>
