<svg width="251" height="43" viewBox="0 0 251 43" fill="none" xmlns="http://www.w3.org/2000/svg">
<path d="M7.59 37.809L1.254 30.615L7.59 23.388H15.708L9.372 30.615L15.708 37.809H7.59ZM18.0977 32.727C18.0977 30.813 18.4387 29.141 19.1207 27.711C19.8247 26.281 20.7817 25.181 21.9917 24.411C23.2017 23.641 24.5437 23.256 26.0177 23.256C27.2057 23.256 28.2617 23.509 29.1857 24.015C30.1317 24.499 30.8687 25.17 31.3967 26.028V17.58H37.8977V42H31.3967V39.426C30.8907 40.284 30.1757 40.966 29.2517 41.472C28.3277 41.978 27.2387 42.231 25.9847 42.231C24.5107 42.231 23.1687 41.846 21.9587 41.076C20.7707 40.306 19.8247 39.206 19.1207 37.776C18.4387 36.324 18.0977 34.641 18.0977 32.727ZM31.4297 32.727C31.4297 31.539 31.0997 30.604 30.4397 29.922C29.8017 29.24 29.0097 28.899 28.0637 28.899C27.0957 28.899 26.2927 29.24 25.6547 29.922C25.0167 30.582 24.6977 31.517 24.6977 32.727C24.6977 33.915 25.0167 34.861 25.6547 35.565C26.2927 36.247 27.0957 36.588 28.0637 36.588C29.0097 36.588 29.8017 36.247 30.4397 35.565C31.0997 34.883 31.4297 33.937 31.4297 32.727ZM44.8504 21.771C43.7064 21.771 42.7824 21.463 42.0784 20.847C41.3964 20.209 41.0554 19.417 41.0554 18.471C41.0554 17.503 41.3964 16.7 42.0784 16.062C42.7824 15.424 43.7064 15.105 44.8504 15.105C45.9724 15.105 46.8744 15.424 47.5564 16.062C48.2604 16.7 48.6124 17.503 48.6124 18.471C48.6124 19.417 48.2604 20.209 47.5564 20.847C46.8744 21.463 45.9724 21.771 44.8504 21.771ZM48.0514 23.487V42H41.5834V23.487H48.0514ZM60.6117 35.895L64.0767 23.487H70.9737L64.6047 42H56.5527L50.1837 23.487H57.0807L60.6117 35.895Z" fill="white"/>
<path d="M85.792 31.727C85.792 29.813 86.188 28.141 86.98 26.711C87.772 25.281 88.872 24.181 90.28 23.411C91.71 22.641 93.338 22.256 95.164 22.256C97.518 22.256 99.498 22.905 101.104 24.203C102.71 25.479 103.744 27.272 104.206 29.582H97.342C96.946 28.372 96.176 27.767 95.032 27.767C94.218 27.767 93.569 28.108 93.085 28.79C92.623 29.45 92.392 30.429 92.392 31.727C92.392 33.025 92.623 34.015 93.085 34.697C93.569 35.379 94.218 35.72 95.032 35.72C96.198 35.72 96.968 35.115 97.342 33.905H104.206C103.744 36.193 102.71 37.986 101.104 39.284C99.498 40.582 97.518 41.231 95.164 41.231C93.338 41.231 91.71 40.846 90.28 40.076C88.872 39.306 87.772 38.206 86.98 36.776C86.188 35.346 85.792 33.663 85.792 31.727ZM113.361 16.58V41H106.893V16.58H113.361ZM115.988 31.727C115.988 29.813 116.329 28.141 117.011 26.711C117.715 25.281 118.661 24.181 119.849 23.411C121.059 22.641 122.401 22.256 123.875 22.256C125.151 22.256 126.251 22.509 127.175 23.015C128.099 23.521 128.814 24.203 129.32 25.061V22.487H135.788V41H129.32V38.426C128.814 39.284 128.088 39.966 127.142 40.472C126.218 40.978 125.129 41.231 123.875 41.231C122.401 41.231 121.059 40.846 119.849 40.076C118.661 39.306 117.715 38.206 117.011 36.776C116.329 35.324 115.988 33.641 115.988 31.727ZM129.32 31.727C129.32 30.539 128.99 29.604 128.33 28.922C127.692 28.24 126.9 27.899 125.954 27.899C124.986 27.899 124.183 28.24 123.545 28.922C122.907 29.582 122.588 30.517 122.588 31.727C122.588 32.915 122.907 33.861 123.545 34.565C124.183 35.247 124.986 35.588 125.954 35.588C126.9 35.588 127.692 35.247 128.33 34.565C128.99 33.883 129.32 32.937 129.32 31.727ZM147.361 41.231C145.689 41.231 144.193 40.956 142.873 40.406C141.575 39.834 140.541 39.064 139.771 38.096C139.023 37.106 138.605 35.995 138.517 34.763H144.787C144.875 35.357 145.15 35.819 145.612 36.149C146.074 36.479 146.646 36.644 147.328 36.644C147.856 36.644 148.274 36.534 148.582 36.314C148.89 36.094 149.044 35.808 149.044 35.456C149.044 34.994 148.791 34.653 148.285 34.433C147.779 34.213 146.943 33.971 145.777 33.707C144.457 33.443 143.357 33.146 142.477 32.816C141.597 32.486 140.827 31.947 140.167 31.199C139.529 30.451 139.21 29.439 139.21 28.163C139.21 27.063 139.507 26.073 140.101 25.193C140.695 24.291 141.564 23.576 142.708 23.048C143.874 22.52 145.271 22.256 146.899 22.256C149.319 22.256 151.222 22.85 152.608 24.038C153.994 25.226 154.797 26.788 155.017 28.724H149.176C149.066 28.13 148.802 27.679 148.384 27.371C147.988 27.041 147.449 26.876 146.767 26.876C146.239 26.876 145.832 26.975 145.546 27.173C145.282 27.371 145.15 27.646 145.15 27.998C145.15 28.438 145.403 28.779 145.909 29.021C146.415 29.241 147.229 29.472 148.351 29.714C149.693 30 150.804 30.319 151.684 30.671C152.586 31.023 153.367 31.595 154.027 32.387C154.709 33.157 155.05 34.213 155.05 35.555C155.05 36.633 154.731 37.601 154.093 38.459C153.477 39.317 152.586 39.999 151.42 40.505C150.276 40.989 148.923 41.231 147.361 41.231ZM166.117 41.231C164.445 41.231 162.949 40.956 161.629 40.406C160.331 39.834 159.297 39.064 158.527 38.096C157.779 37.106 157.361 35.995 157.273 34.763H163.543C163.631 35.357 163.906 35.819 164.368 36.149C164.83 36.479 165.402 36.644 166.084 36.644C166.612 36.644 167.03 36.534 167.338 36.314C167.646 36.094 167.8 35.808 167.8 35.456C167.8 34.994 167.547 34.653 167.041 34.433C166.535 34.213 165.699 33.971 164.533 33.707C163.213 33.443 162.113 33.146 161.233 32.816C160.353 32.486 159.583 31.947 158.923 31.199C158.285 30.451 157.966 29.439 157.966 28.163C157.966 27.063 158.263 26.073 158.857 25.193C159.451 24.291 160.32 23.576 161.464 23.048C162.63 22.52 164.027 22.256 165.655 22.256C168.075 22.256 169.978 22.85 171.364 24.038C172.75 25.226 173.553 26.788 173.773 28.724H167.932C167.822 28.13 167.558 27.679 167.14 27.371C166.744 27.041 166.205 26.876 165.523 26.876C164.995 26.876 164.588 26.975 164.302 27.173C164.038 27.371 163.906 27.646 163.906 27.998C163.906 28.438 164.159 28.779 164.665 29.021C165.171 29.241 165.985 29.472 167.107 29.714C168.449 30 169.56 30.319 170.44 30.671C171.342 31.023 172.123 31.595 172.783 32.387C173.465 33.157 173.806 34.213 173.806 35.555C173.806 36.633 173.487 37.601 172.849 38.459C172.233 39.317 171.342 39.999 170.176 40.505C169.032 40.989 167.679 41.231 166.117 41.231ZM195.499 22.289V28.13H176.59V22.289H195.499ZM195.499 31.133V36.941H176.59V31.133H195.499ZM200.387 17.735H206.921L203.126 27.041H198.803L200.387 17.735ZM208.604 17.735H215.138L211.343 27.041H207.02L208.604 17.735Z" fill="#E2FAED"/>
</svg>
