<svg width="33" height="33" viewBox="0 0 33 33" fill="none" xmlns="http://www.w3.org/2000/svg">
<circle cx="16.5" cy="16.5" r="16" stroke="#f7f7f7"/>
<path d="M12.1307 10.8182H13.3636V18.0966C13.3636 18.7462 13.2443 19.2981 13.0057 19.7521C12.767 20.2062 12.4306 20.5509 11.9964 20.7862C11.5623 21.0215 11.0502 21.1392 10.4602 21.1392C9.90341 21.1392 9.40791 21.0381 8.97372 20.8359C8.53954 20.6304 8.19815 20.3388 7.94957 19.9609C7.70099 19.5831 7.5767 19.134 7.5767 18.6136H8.78977C8.78977 18.902 8.86103 19.1539 9.00355 19.3693C9.14938 19.5814 9.34825 19.7472 9.60014 19.8665C9.85204 19.9858 10.1387 20.0455 10.4602 20.0455C10.8149 20.0455 11.1165 19.9709 11.3651 19.8217C11.6136 19.6726 11.8026 19.4538 11.9318 19.1655C12.0644 18.8738 12.1307 18.5175 12.1307 18.0966V10.8182ZM15.8345 21V10.8182H19.2749C20.0703 10.8182 20.7232 10.9541 21.2337 11.2259C21.7441 11.4943 22.1219 11.8639 22.3672 12.3345C22.6125 12.8052 22.7351 13.3404 22.7351 13.9403C22.7351 14.5402 22.6125 15.0722 22.3672 15.5362C22.1219 16.0002 21.7457 16.3648 21.2386 16.63C20.7315 16.8918 20.0836 17.0227 19.2947 17.0227H16.5107V15.9091H19.255C19.7985 15.9091 20.236 15.8295 20.5675 15.6705C20.9022 15.5114 21.1442 15.286 21.2933 14.9943C21.4458 14.6993 21.522 14.348 21.522 13.9403C21.522 13.5327 21.4458 13.1764 21.2933 12.8714C21.1409 12.5665 20.8973 12.3312 20.5625 12.1655C20.2277 11.9964 19.7853 11.9119 19.2351 11.9119H17.0675V21H15.8345ZM20.6271 16.4261L23.1328 21H21.701L19.2351 16.4261H20.6271Z" fill="#f7f7f7"/>
</svg>
