<svg width="708" height="585" viewBox="0 0 708 585" fill="none" xmlns="http://www.w3.org/2000/svg">
<rect width="708" height="585" rx="22" fill="black"/>
<path d="M428.293 248.704C435.921 235.061 435.356 217.718 426.285 204.946C423.604 201.096 418.354 200.136 414.483 202.835C410.655 205.529 409.706 210.851 412.387 214.711C417.509 222.091 417.765 231.663 413.844 239.512C407.711 236.582 400.922 234.805 393.812 234.805C380.934 234.805 369.31 239.721 360.313 247.573L388.125 259.83V292H420.316L432.235 319.808C440.095 310.804 445 299.18 445 285.992C445 271.383 438.495 258.088 428.293 248.704ZM376.75 303.375V267.33L357.928 259.265C339.852 286.775 330.006 343.187 282.906 343.187C271.933 343.187 263 352.11 263 363.094C263 374.078 271.933 383 282.906 383C346.997 383 396.692 351.623 421.29 323.103L412.83 303.375H376.75Z" fill="#81FBA3"/>
</svg>
