<svg width="708" height="585" viewBox="0 0 708 585" fill="none" xmlns="http://www.w3.org/2000/svg">
<path d="M686 0H22C9.84974 0 0 9.84974 0 22V563C0 575.15 9.84974 585 22 585H686C698.15 585 708 575.15 708 563V22C708 9.84974 698.15 0 686 0Z" fill="black"/>
<g filter="url(#filter0_dd_324_10)">
<path d="M428.293 248.704C435.921 235.061 435.356 217.718 426.285 204.946C423.604 201.096 418.354 200.136 414.483 202.835C410.655 205.529 409.706 210.851 412.387 214.711C417.509 222.091 417.765 231.663 413.844 239.512C407.711 236.582 400.922 234.805 393.812 234.805C380.934 234.805 369.31 239.721 360.313 247.573L388.125 259.83V292H420.316L432.235 319.808C440.095 310.804 445 299.18 445 285.992C445 271.383 438.495 258.088 428.293 248.704ZM376.75 303.375V267.33L357.928 259.265C339.852 286.775 330.006 343.187 282.906 343.187C271.933 343.187 263 352.11 263 363.094C263 374.078 271.933 383 282.906 383C346.997 383 396.692 351.623 421.29 323.103L412.83 303.375H376.75Z" fill="#81FBA3"/>
</g>
<defs>
<filter id="filter0_dd_324_10" x="234" y="168.301" width="240" height="247.699" filterUnits="userSpaceOnUse" color-interpolation-filters="sRGB">
<feFlood flood-opacity="0" result="BackgroundImageFix"/>
<feColorMatrix in="SourceAlpha" type="matrix" values="0 0 0 0 0 0 0 0 0 0 0 0 0 0 0 0 0 0 127 0" result="hardAlpha"/>
<feOffset dx="5" dy="-9"/>
<feGaussianBlur stdDeviation="12"/>
<feComposite in2="hardAlpha" operator="out"/>
<feColorMatrix type="matrix" values="0 0 0 0 0.305632 0 0 0 0 1 0 0 0 0 0.500055 0 0 0 0.43 0"/>
<feBlend mode="normal" in2="BackgroundImageFix" result="effect1_dropShadow_324_10"/>
<feColorMatrix in="SourceAlpha" type="matrix" values="0 0 0 0 0 0 0 0 0 0 0 0 0 0 0 0 0 0 127 0" result="hardAlpha"/>
<feOffset dx="-5" dy="9"/>
<feGaussianBlur stdDeviation="12"/>
<feComposite in2="hardAlpha" operator="out"/>
<feColorMatrix type="matrix" values="0 0 0 0 0.305882 0 0 0 0 1 0 0 0 0 0.501961 0 0 0 0.43 0"/>
<feBlend mode="normal" in2="effect1_dropShadow_324_10" result="effect2_dropShadow_324_10"/>
<feBlend mode="normal" in="SourceGraphic" in2="effect2_dropShadow_324_10" result="shape"/>
</filter>
</defs>
</svg>
