<svg width="975" height="585" viewBox="0 0 975 585" fill="none" xmlns="http://www.w3.org/2000/svg">
<path d="M944.703 0H30.2966C13.5643 0 0 9.84974 0 22V563C0 575.15 13.5643 585 30.2966 585H944.703C961.436 585 975 575.15 975 563V22C975 9.84974 961.436 0 944.703 0Z" fill="black"/>
<path fill-rule="evenodd" clip-rule="evenodd" d="M428.181 220.024C424.878 220.142 422.4 220.82 420.69 221.969C419.717 222.617 419.009 223.442 418.537 224.443C418.036 225.533 417.8 226.888 417.829 228.42C417.947 232.928 420.336 238.819 424.907 245.595L424.966 245.684L439.801 269.251C445.758 278.708 451.981 288.341 459.737 295.411C467.199 302.217 476.223 306.812 488.197 306.842C501.144 306.871 510.611 302.099 518.308 294.911C526.3 287.428 532.612 277.176 538.834 266.953L555.556 239.468C558.683 232.368 559.803 227.625 559.095 224.826C558.683 223.176 556.854 222.352 553.728 222.204C553.079 222.175 552.371 222.175 551.693 222.175C550.956 222.204 550.159 222.234 549.363 222.322C548.921 222.352 548.478 222.322 548.065 222.234C546.591 222.322 545.057 222.204 543.494 221.998L549.216 196.692C506.747 203.38 474.984 171.887 430.098 190.388L433.342 220.201C431.454 220.319 429.744 220.26 428.181 220.024ZM536.77 419.672V433.901L507.485 450.487V433.901L526.33 426.742L507.485 419.672V403.086L536.77 419.672ZM486.044 455.171H473.569L488.964 395.25H501.439L486.044 455.171ZM465.223 419.672L446.377 426.742L465.223 433.901V450.487L435.937 433.901V419.672L465.223 403.086V419.672ZM559.361 214.692C559.98 188.856 564.728 162.755 546.325 141.573C533.202 126.46 499.05 112.231 476.901 111.024C467.553 110.523 471.121 118.123 461.89 121.305C442.838 127.875 426.175 141.838 420.719 161.223C419.835 164.404 419.215 167.616 418.891 170.827C418.272 184.319 418.625 200.404 419.599 213.19C418.272 213.69 417.062 214.309 416.001 215.016C413.7 216.548 412.019 218.551 410.899 220.937C409.837 223.206 409.365 225.798 409.453 228.656C409.63 234.725 412.432 242.09 417.859 250.191L432.693 273.759C437.884 282.007 443.31 290.403 449.916 297.503C449.592 298.446 449.946 297.415 449.739 298.033C447.911 303.572 444.844 312.822 442.101 318.007C424.081 329.791 382.822 332.825 366.808 341.751C323.101 366.085 338.879 416.255 338.348 457.705C339.204 466.955 344.453 472.258 354.775 473.053H365.953L353.714 380.255C352.77 373.038 357.902 367.116 364.213 367.116H421.634H489.406C487.076 352.092 448.176 337.598 446.79 326.285C447.174 326.02 447.528 325.666 447.822 325.254C451.126 320.658 454.547 311.084 456.906 304.102C465.252 310.848 475.279 315.267 488.167 315.297C499.728 315.326 508.959 312.115 516.716 306.901C517.482 307.991 518.249 309.14 519.075 310.347C522.761 315.768 527.067 322.043 531.078 326.521C530.223 339.395 496.484 339.542 492.65 367.116H612.8C619.112 367.116 624.273 373.038 623.299 380.255L611.06 473.053H622.238C632.56 472.258 637.809 466.955 638.694 457.705C635.774 418.553 650.461 364.141 610.234 341.751C594.427 332.943 554.023 329.879 535.649 318.478C532.553 314.649 529.22 309.758 526.271 305.457C525.327 304.043 524.413 302.717 523.558 301.51L524 301.127C532.818 292.878 539.454 282.125 545.972 271.402L562.87 243.592C562.959 243.445 563.047 243.268 563.136 243.121C567.088 234.135 568.385 227.536 567.206 222.882C566.115 218.551 563.49 215.959 559.361 214.692Z" fill="#FB8181"/>
</svg>
