<svg width="22" height="13" viewBox="0 0 22 13" fill="none" xmlns="http://www.w3.org/2000/svg">
<path d="M11 0C9.55035 0 8.22938 0.433598 7.25064 1.16219C6.27189 1.89057 5.62791 2.93841 5.62791 4.11258C5.62791 4.52912 5.7198 4.902 5.88244 5.22831C6.00513 5.49182 6.17366 5.7306 6.39151 5.92679C6.46217 5.98796 6.53547 6.04607 6.6112 6.10094C6.83233 6.27138 7.082 6.41268 7.35168 6.52286C8.34813 6.92955 9.61845 7.03059 10.9999 7.03059C11.1933 7.03059 11.3842 7.0283 11.5728 7.02378C12.0214 7.01596 12.4666 6.99129 12.9013 6.93681C13.5418 6.86167 14.132 6.73357 14.6482 6.52281C14.829 6.44936 15.0028 6.36003 15.1676 6.2559C15.2402 6.21632 15.3117 6.17484 15.3821 6.13151C15.6758 5.91953 15.9074 5.6352 16.0734 5.31244C16.2346 5.01918 16.337 4.68591 16.3644 4.31506C16.3755 4.20474 16.3808 4.0938 16.379 3.98301C16.3756 3.98226 16.3723 3.98145 16.369 3.98057C16.3228 2.86012 15.6912 1.86325 14.7493 1.16219C13.7706 0.4337 12.4496 0 11 0ZM11 0.913907C12.263 0.913907 13.3979 1.29866 14.1968 1.89331C14.9957 2.48786 15.4512 3.26773 15.4512 4.11258C15.4512 4.95744 15.0791 5.35864 14.2978 5.6776C13.5165 5.9966 12.3311 6.11678 11 6.11678C9.6689 6.11678 8.48346 5.9966 7.7022 5.6776C6.92094 5.35864 6.54884 4.95744 6.54884 4.11258C6.54884 3.26773 7.00434 2.48786 7.80325 1.89331C8.6021 1.29861 9.737 0.913907 11 0.913907ZM9.06733 1.81502C8.75329 1.81776 8.41807 1.94281 8.1378 2.1617C7.56508 2.6089 7.37512 3.31728 7.7134 3.74387C8.05169 4.17046 8.79018 4.15361 9.36279 3.7064C9.93546 3.25909 10.1254 2.55082 9.78708 2.12422C9.62771 1.92332 9.3696 1.81238 9.06733 1.81502ZM4.70365 4.24094C4.12152 4.42306 3.58094 4.62884 3.09013 4.85503C1.09734 5.7732 0 6.98225 0 8.17439C0 9.36653 1.09734 10.5756 3.09013 11.4938C5.08292 12.4119 7.89304 12.9978 11 12.9978C14.107 12.9978 16.917 12.4119 18.9099 11.4938C20.9027 10.5756 22 9.36653 22 8.17439C22 6.98225 20.9027 5.7732 18.9099 4.85503C18.4221 4.63031 17.8852 4.42565 17.3072 4.24449C17.2562 5.26487 16.7831 6.2594 15.9108 6.88137L15.8995 6.88949L15.8875 6.89695C14.1754 7.96704 12.1359 7.98196 10.3227 7.9252C8.8241 7.88793 7.0798 7.74303 5.78063 6.61121L5.77807 6.60887L5.77551 6.60659C5.07919 5.98147 4.741 5.12042 4.70365 4.24094ZM19.5468 6.63893C19.9393 6.64126 20.3296 6.77144 20.6197 7.05932C20.9768 7.41362 21.0931 7.9186 21.0249 8.39287C20.9566 8.86708 20.7159 9.33328 20.3303 9.716C19.9446 10.0987 19.4748 10.3376 18.9969 10.4053C18.5191 10.473 18.0102 10.3576 17.6531 10.0032C17.296 9.64878 17.1797 9.14395 17.248 8.66968C17.3163 8.19546 17.5569 7.72922 17.9425 7.34655C18.3282 6.96372 18.798 6.72499 19.2758 6.65721C19.3656 6.64446 19.4561 6.63842 19.5468 6.63893ZM2.35395 6.73743C2.44451 6.73692 2.53522 6.74321 2.62486 6.75591C3.10272 6.82369 3.5726 7.06242 3.95826 7.44515C4.34393 7.82787 4.58449 8.29406 4.65274 8.76838C4.721 9.2426 4.60465 9.74748 4.24753 10.1018C3.89052 10.4562 3.38186 10.5715 2.9039 10.5037C2.42604 10.4359 1.95611 10.1972 1.57044 9.8145C1.18478 9.43178 0.944209 8.96548 0.875958 8.49121C0.807758 8.017 0.924051 7.51211 1.28117 7.15777C1.57126 6.86979 1.96148 6.73971 2.35395 6.73743ZM19.5846 7.55212C19.5249 7.55003 19.4653 7.55334 19.4062 7.56202C19.1509 7.59817 18.8475 7.7409 18.5938 7.99268C18.34 8.24441 18.1963 8.54559 18.1597 8.79895C18.1232 9.0523 18.1818 9.23549 18.3043 9.35694C18.4267 9.47849 18.6113 9.53667 18.8667 9.50047C19.122 9.46422 19.4253 9.3214 19.679 9.06967C19.9327 8.81783 20.0765 8.51691 20.1131 8.26355C20.1495 8.01019 20.0909 7.82691 19.9684 7.70546C19.8766 7.61432 19.7499 7.55893 19.5846 7.55212ZM2.31614 7.65072C2.15078 7.65748 2.024 7.71297 1.93221 7.80406C1.80973 7.92561 1.7511 8.10869 1.78753 8.36205C1.82395 8.61551 1.96798 8.91664 2.22169 9.16842C2.47536 9.42025 2.77865 9.56292 3.034 9.59912C3.28931 9.63532 3.474 9.57719 3.59644 9.45564C3.71887 9.33414 3.77755 9.151 3.74102 8.89765C3.70449 8.64429 3.56067 8.34311 3.30701 8.09138C3.05324 7.83955 2.74985 7.69688 2.49454 7.66068C2.43059 7.65169 2.37124 7.64839 2.31614 7.65072ZM11 9.34216C11.5454 9.34216 12.0478 9.50311 12.4339 9.79049C12.8202 10.078 13.0977 10.5165 13.0977 11.0177C13.0977 11.5188 12.8202 11.9574 12.4339 12.2448C12.0478 12.5322 11.5454 12.6932 11 12.6932C10.4546 12.6932 9.95219 12.5322 9.56606 12.2448C9.17978 11.9574 8.90233 11.5188 8.90233 11.0177C8.90233 10.5165 9.17983 10.078 9.56606 9.79049C9.95219 9.50311 10.4546 9.34216 11 9.34216ZM11 10.2561C10.6412 10.2561 10.325 10.368 10.1186 10.5216C9.91228 10.6751 9.82326 10.8458 9.82326 11.0177C9.82326 11.1895 9.91228 11.3602 10.1186 11.5137C10.325 11.6673 10.6412 11.7792 11 11.7792C11.3588 11.7792 11.675 11.6673 11.8814 11.5137C12.0877 11.3602 12.1767 11.1895 12.1767 11.0177C12.1767 10.8458 12.0877 10.6751 11.8814 10.5216C11.675 10.3679 11.3588 10.2561 11 10.2561Z" fill="white"/>
</svg>
